<svg id="visual" viewBox="0 0 900 600" width="900" height="600" xmlns="http://www.w3.org/2000/svg" xmlns:xlink="http://www.w3.org/1999/xlink" version="1.1"><rect width="900" height="600" fill="#000"></rect><g><g transform="translate(373 174)"><path d="M0 -147L63.8 -132.4L114.9 -91.7L143.3 -32.7L143.3 32.7L114.9 91.7L63.8 132.4L0 147L-63.8 132.4L-114.9 91.7L-143.3 32.7L-143.3 -32.7L-114.9 -91.7L-63.8 -132.4Z" fill="#fbaa00"></path></g><g transform="translate(758 371)"><path d="M0 -89L38.6 -80.2L69.6 -55.5L86.8 -19.8L86.8 19.8L69.6 55.5L38.6 80.2L0 89L-38.6 80.2L-69.6 55.5L-86.8 19.8L-86.8 -19.8L-69.6 -55.5L-38.6 -80.2Z" fill="#fbaa00"></path></g><g transform="translate(197 484)"><path d="M0 -137L59.4 -123.4L107.1 -85.4L133.6 -30.5L133.6 30.5L107.1 85.4L59.4 123.4L0 137L-59.4 123.4L-107.1 85.4L-133.6 30.5L-133.6 -30.5L-107.1 -85.4L-59.4 -123.4Z" fill="#fbaa00"></path></g></g></svg>